<svg version="1.1" id="Layer_1" xmlns="http://www.w3.org/2000/svg" x="0" y="0" viewBox="151.6 238.9 659.8 316.2" xml:space="preserve"><style>.st0{fill:#385723}.st2{fill:#92b500}.st3{fill:#79a500}.st5{fill:#d31d21}.st6{fill:#bc0029}.st7{fill:#ffc41f}.st8{fill:#f49c00}.st9{fill:#62497a}.st10{fill:#4b3a68}</style><path class="st0" d="M227.3 549.2c-2.2 1-4.6 1.9-7.2 2.6-2.6.7-5.5 1-8.6 1-2.6-5-4.9-9.7-7.1-14l-8.9-17.9c-1-1.9-2.1-3.5-3.1-4.8-1-1.3-2.6-2-4.7-2-5.4 0-10.4-1.1-15-3.3v-18.4c1.7 2.9 3.9 5.3 6.5 7 2.6 1.8 5.5 2.6 8.6 2.6 2.6 0 5-.5 7.2-1.4 2.3-.9 4.3-2.3 6-4.1 1.7-1.8 3.1-4 4-6.7 1-2.6 1.5-5.6 1.5-8.9 0-3.3-.5-6.3-1.5-8.9-1-2.6-2.3-4.9-4-6.7s-3.7-3.3-6-4.3-4.7-1.5-7.2-1.5-5 .6-7.3 1.9c-2.3 1.3-4.3 3-6 5.2s-3.1 4.7-4 7.6c-1 2.9-1.5 6-1.5 9.3v65c-2.5 1.3-5.1 2.4-7.9 3.2-2.8.8-5.9 1.2-9.4 1.2v-69.1c0-4.9.9-9.6 2.8-14s4.5-8.2 7.7-11.5c3.3-3.3 7.1-5.8 11.5-7.7 4.4-1.9 9.1-2.8 14.1-2.8 4.9 0 9.6.8 14 2.4 4.4 1.6 8.2 3.9 11.5 6.7s5.8 6.4 7.7 10.5c1.9 4.1 2.8 8.6 2.8 13.5 0 6.4-1.5 11.8-4.5 16.1-3 4.3-7.1 8-12.2 11.1l20.2 41.1zM267.9 482.9c4.1 0 7.9.7 11.6 2.2 3.7 1.5 6.9 3.4 9.6 5.9 2.7 2.5 4.8 5.3 6.4 8.5 1.6 3.2 2.3 6.6 2.1 10.1-.2 4.2-1.6 7.7-4.1 10.6-2.5 2.9-5.8 5.1-9.9 6.7-4 1.6-8.6 2.5-13.8 2.8-5.2.3-10.4 0-15.8-1.1-1.3-3.4-2-6.9-2-10.5v-1.7c7.1 1.4 12.6 1.8 16.7 1.3s7-1.6 9-3 3.2-2.9 3.7-4.5.7-2.6.7-3.2c0-.5-.1-1.3-.4-2.6-.2-1.3-.9-2.6-1.8-3.9-1-1.3-2.5-2.5-4.4-3.5-1.9-1-4.7-1.5-8.2-1.5-2.7 0-5.2.6-7.4 1.8-2.2 1.2-4.1 2.8-5.7 5-1.6 2.1-2.9 4.7-3.8 7.7s-1.4 6.2-1.4 9.7c0 3.3.5 6.4 1.5 9.2 1 2.8 2.3 5.3 4 7.5s3.7 3.8 6 5c2.3 1.2 4.7 1.8 7.4 1.8 2.3.2 4.4 0 6.4-.6s3.7-1.4 5.3-2.3c1.7-1 3.3-2.3 4.8-3.7l8.4 8.5c-3.2 3.1-6.9 5.6-11.2 7.4-4.3 1.8-8.8 2.7-13.6 2.7-5 0-9.7-1-14.1-2.8-4.4-1.9-8.2-4.5-11.5-7.7-3.3-3.3-5.8-7.1-7.7-11.4-1.9-4.4-2.8-9-2.8-14s.9-9.7 2.8-14.1 4.5-8.2 7.7-11.5c3.3-3.3 7.1-5.8 11.5-7.7 4.3-2.2 9-3.1 14-3.1zM377 519c0 5-1 9.7-2.8 14-1.9 4.4-4.5 8.2-7.7 11.4-3.3 3.3-7.1 5.8-11.5 7.7s-9.1 2.8-14.1 2.8-9.7-1-14-2.8c-4.4-1.9-8.2-4.5-11.4-7.7-3.3-3.3-5.8-7.1-7.7-11.4-1.9-4.3-2.8-9-2.8-14s.9-9.7 2.8-14c1.9-4.4 4.5-8.1 7.7-11.4 3.3-3.3 7.1-5.8 11.4-7.7s9-2.8 14-2.8c5.4 0 10.4 1.1 15 3.3v18.2c-1.7-2.9-3.9-5.3-6.5-7-2.6-1.8-5.5-2.6-8.6-2.6-2.6 0-5 .6-7.2 1.9-2.3 1.3-4.3 3-6 5.2s-3.1 4.7-4 7.7c-1 2.9-1.5 6.1-1.5 9.5 0 3.3.5 6.5 1.5 9.4 1 3 2.3 5.6 4 7.7 1.7 2.2 3.7 3.9 6 5.2 2.3 1.3 4.7 1.9 7.2 1.9s5-.6 7.2-1.9c2.3-1.3 4.3-3 6-5.2 1.7-2.2 3.1-4.7 4.1-7.6 1-2.9 1.6-6 1.6-9.3v-65.3c2.5-1.3 5.1-2.4 7.9-3.1 2.8-.8 5.9-1.1 9.4-1.1v69zM495.6 549.2c-2.2 1-4.6 1.9-7.2 2.6-2.6.7-5.5 1-8.6 1-2.5-5-4.9-9.7-7.1-14l-8.9-17.9c-1-1.9-2.1-3.5-3.1-4.8s-2.6-2-4.7-2c-5.4 0-10.4-1.1-15-3.3v-18.4c1.7 2.9 3.9 5.3 6.5 7 2.6 1.8 5.5 2.6 8.6 2.6 2.5 0 5-.5 7.2-1.4 2.3-.9 4.3-2.3 6-4.1 1.7-1.8 3-4 4-6.7 1-2.6 1.5-5.6 1.5-8.9 0-3.3-.5-6.3-1.5-8.9-1-2.6-2.3-4.9-4-6.7s-3.7-3.3-6-4.3-4.7-1.5-7.2-1.5-5 .6-7.3 1.9c-2.3 1.3-4.3 3-6 5.2s-3 4.7-4 7.6c-1 2.9-1.5 6-1.5 9.3v65c-2.5 1.3-5.1 2.4-7.9 3.2-2.8.8-5.9 1.2-9.4 1.2v-69.1c0-4.9.9-9.6 2.8-14s4.5-8.2 7.7-11.5c3.3-3.3 7.1-5.8 11.5-7.7s9.1-2.8 14.1-2.8c4.9 0 9.6.8 14 2.4 4.4 1.6 8.2 3.9 11.5 6.7 3.3 2.9 5.8 6.4 7.7 10.5 1.9 4.1 2.8 8.6 2.8 13.5 0 6.4-1.5 11.8-4.5 16.1-3 4.3-7.1 8-12.2 11.1l20.2 41.1zM559.8 486c2.8-.8 5.9-1.2 9.3-1.2v33.9c0 5-.9 9.7-2.6 14-1.7 4.4-4.1 8.2-7.1 11.4-3 3.3-6.7 5.8-10.9 7.7s-8.8 2.8-13.7 2.8c-5 0-9.6-1-13.8-2.8-4.2-1.9-7.8-4.5-10.8-7.7-3-3.3-5.4-7.1-7.1-11.4-1.7-4.3-2.5-9-2.5-14v-29.5c2.5-1.3 5.1-2.4 7.9-3.2s5.9-1.2 9.4-1.2v33.9c0 3.3.4 6.5 1.2 9.4.8 3 1.9 5.5 3.4 7.7s3.2 3.9 5.3 5.2c2.1 1.3 4.4 1.9 7.1 1.9 2.5 0 4.9-.6 7-1.9 2.1-1.3 3.9-3 5.4-5.2 1.5-2.2 2.6-4.8 3.4-7.7.8-3 1.2-6.1 1.2-9.4v-29.5c2.4-1.3 5.1-2.4 7.9-3.2zM614 483c4.9 0 9.6 1 14 2.8 4.4 1.9 8.2 4.5 11.5 7.7 3.3 3.3 5.8 7.1 7.7 11.4 1.9 4.4 2.8 9 2.8 14s-1 9.7-2.8 14c-1.9 4.3-4.5 8.2-7.7 11.4s-7.1 5.8-11.5 7.7c-4.4 1.9-9 2.8-14 2.8s-9.7-1-14-2.8c-4.3-1.9-8.2-4.5-11.4-7.7s-5.8-7.1-7.7-11.4c-1.9-4.4-2.8-9-2.8-14v-65c2.5-1.3 5.1-2.4 7.9-3.1 2.8-.8 5.9-1.1 9.3-1.1v69.6c0 3.3.5 6.4 1.5 9.3 1 2.9 2.3 5.4 4 7.6 1.7 2.2 3.7 3.9 6 5.2 2.3 1.3 4.8 1.9 7.3 1.9s5-.6 7.3-1.9c2.3-1.3 4.3-3 6-5.2s3-4.8 4-7.7c1-3 1.5-6.1 1.5-9.4 0-3.4-.5-6.6-1.5-9.5-1-2.9-2.3-5.5-4-7.7-1.7-2.2-3.7-3.9-6-5.2s-4.8-1.9-7.3-1.9c-3 0-5.8.9-8.4 2.6-2.6 1.8-4.8 4.1-6.5 7v-18.2c4.6-2.1 9.5-3.2 14.8-3.2zM669.6 475.9c-2.8 0-5-.9-6.9-2.8-1.8-1.9-2.8-4.2-2.8-7 0-2.7.9-5 2.8-6.9s4.1-2.8 6.9-2.8c2.7 0 5.1.9 7 2.8s2.8 4.1 2.8 6.9c0 2.8-1 5.1-2.8 7-1.9 1.9-4.2 2.8-7 2.8zm-8.6 14.3c2.5-1.3 5.1-2.4 7.9-3.2 2.8-.8 5.9-1.2 9.4-1.2v62.6c-4.1 2.2-8.7 3.5-13.9 4.1H661v-62.3zM724.8 482.9c4.1 0 8 .7 11.6 2.2 3.7 1.5 6.9 3.4 9.6 5.9 2.7 2.5 4.8 5.3 6.4 8.5 1.6 3.2 2.3 6.6 2.1 10.1-.2 4.2-1.6 7.7-4.1 10.6-2.5 2.9-5.8 5.1-9.9 6.7-4 1.6-8.6 2.5-13.8 2.8-5.2.3-10.4 0-15.8-1.1-1.3-3.4-2-6.9-2-10.5v-1.7c7.1 1.4 12.7 1.8 16.7 1.3 4-.6 7-1.6 9-3s3.2-2.9 3.7-4.5.7-2.6.7-3.2c0-.5-.1-1.3-.3-2.6-.2-1.3-.8-2.6-1.8-3.9-1-1.3-2.5-2.5-4.4-3.5-1.9-1-4.7-1.5-8.2-1.5-2.7 0-5.2.6-7.5 1.8-2.2 1.2-4.1 2.8-5.7 5-1.6 2.1-2.9 4.7-3.8 7.7s-1.3 6.2-1.3 9.7c0 3.3.5 6.4 1.5 9.2 1 2.8 2.3 5.3 4 7.5s3.7 3.8 6 5c2.3 1.2 4.7 1.8 7.4 1.8 2.3.2 4.4 0 6.4-.6s3.7-1.4 5.3-2.3c1.7-1 3.3-2.3 4.8-3.7l8.4 8.5c-3.2 3.1-7 5.6-11.2 7.4-4.3 1.8-8.8 2.7-13.6 2.7-5 0-9.7-1-14.1-2.8-4.4-1.9-8.2-4.5-11.5-7.7s-5.8-7.1-7.7-11.4c-1.9-4.4-2.8-9-2.8-14s.9-9.7 2.8-14.1 4.5-8.2 7.7-11.5c3.3-3.3 7.1-5.8 11.5-7.7 4.2-2.2 8.9-3.1 13.9-3.1zM794.5 513.5c5.7 2.2 10 5.1 13 8.7 3 3.6 4.3 7.8 3.9 12.6-.2 3.4-1.1 6.4-2.8 9-1.7 2.6-3.9 4.8-6.5 6.5-2.6 1.7-5.6 2.9-8.9 3.7s-6.8 1-10.3.8c-3.9-.3-7.7-1.3-11.5-3.2-3.8-1.8-7-4.1-9.8-6.7.8-1.7 1.8-3.3 2.9-4.9s2.4-3.1 4-4.8c2.7 3.2 5.3 5.4 7.9 6.5 2.6 1.1 5 1.7 7.2 1.9 4.3.3 7.6-.4 9.6-2.1 2.1-1.7 3.2-3.8 3.4-6.3.1-1.6-.2-3-.9-4.1-.7-1.1-1.8-2.1-3.1-3-1.4-.8-3.1-1.6-5.2-2.4s-4.5-1.6-7.1-2.6c-3.6-1.4-6.5-3-8.9-4.6-2.3-1.7-4.1-3.4-5.5-5.2-1.3-1.8-2.2-3.6-2.7-5.5-.5-1.8-.6-3.7-.4-5.5.2-2.3.9-4.5 2.1-6.7 1.2-2.2 2.8-4.2 4.9-5.9 2.1-1.7 4.6-3 7.6-3.8 3-.9 6.4-1.1 10.1-.7 4.2.5 8 1.6 11.4 3.3 3.5 1.7 6.5 3.9 9.3 6.5-.8 1.7-1.8 3.4-2.9 5-1.1 1.6-2.4 3.2-4 4.7-2.8-3.2-5.4-5.4-8-6.5-2.6-1.1-5-1.7-7.2-1.8-1.2-.1-2.4 0-3.5.4s-2.1.9-2.9 1.6c-.8.7-1.4 1.6-1.8 2.5-.4 1-.4 2.1 0 3.2.4 1 .9 1.9 1.7 2.6s1.8 1.4 3.1 2.1 2.9 1.4 4.8 2.1c1.9.8 4.2 1.6 7 2.6z"/><g><path d="M547.6 313.9c-6.4 0-12.3 1.6-17.6 4.4-9.1 4.9-20.1 4.9-29.1 0-5.2-2.8-11.2-4.4-17.6-4.4-20.6 0-37.3 16.7-37.3 37.3 0 8.2 3.2 15.5 7.1 22 5.8 9.5 14.6 20.2 23.7 30.2 20.7 22.8 56.6 22.7 77.3 0 9.1-10 17.8-20.6 23.7-30.2 4-6.5 7.1-13.8 7.1-22 .1-20.6-16.6-37.3-37.3-37.3z" fill="#4f4f84"/><path class="st2" d="M531.2 274.9c0 16.7-15.7 30.3-15.7 30.3s-15.7-13.6-15.7-30.3c0-16.7 15.7-30.3 15.7-30.3s15.7 13.5 15.7 30.3zM492.5 282.2c8.3 8.3 7.3 22.9 7.3 22.9s-14.6 1.1-22.9-7.3c-8.3-8.3-7.3-22.9-7.3-22.9s14.5-1.1 22.9 7.3zM554.1 297.8c-8.3 8.3-22.9 7.3-22.9 7.3s-1-14.6 7.3-22.9c8.3-8.3 22.9-7.3 22.9-7.3s1.1 14.6-7.3 22.9z"/><path class="st3" d="M531.2 274.9c0 16.7-15.7 30.3-15.7 30.3v-60.6s15.7 13.5 15.7 30.3zM499.8 305.1s-14.6 1-22.9-7.3c-8.3-8.3-7.3-22.9-7.3-22.9l30.2 30.2zM554.1 297.8c-8.3 8.3-22.9 7.3-22.9 7.3l30.2-30.2s1.1 14.6-7.3 22.9z"/><g><path d="M547.6 313.9c-6.4 0-12.3 1.6-17.6 4.4-4.5 2.4-9.6 3.6-14.6 3.6v98.5c14.2 0 28.3-5.7 38.7-17.1 9.1-10 17.8-20.6 23.7-30.2 4-6.5 7.1-13.8 7.1-22 .1-20.5-16.6-37.2-37.3-37.2z" fill="#424272"/></g></g><g><path class="st5" d="M468.7 315.5c-14.4 0-26.9 7.8-33.8 19.3-6.8-11.5-19.4-19.3-33.8-19.3-21.6 0-39.1 17.5-39.1 39.1 0 8.6 3.3 16.2 7.5 23.1 14.7 24.1 47.2 55 60 66.8 3 2.8 7.6 2.8 10.7 0 12.8-11.8 45.4-42.7 60.1-66.8 4.2-6.8 7.5-14.4 7.5-23 .1-21.7-17.5-39.2-39.1-39.2z"/><path class="st6" d="M468.7 315.5c-14.4 0-26.9 7.8-33.8 19.3v111.8c1.9 0 3.8-.7 5.3-2.1 12.8-11.8 45.4-42.7 60.1-66.8 4.2-6.8 7.5-14.4 7.5-23 .1-21.7-17.5-39.2-39.1-39.2z"/><path class="st7" d="M437.7 358.9c0 2.2-1.2 4-2.8 4-1.5 0-2.8-1.8-2.8-4s1.2-4 2.8-4c1.6 0 2.8 1.8 2.8 4zM437.7 389.1c0 2.2-1.2 4-2.8 4-1.5 0-2.8-1.8-2.8-4s1.2-4 2.8-4c1.6 0 2.8 1.8 2.8 4zM437.7 419.3c0 2.2-1.2 4-2.8 4s-2.8-1.8-2.8-4 1.2-4 2.8-4 2.8 1.8 2.8 4zM421.1 343c0 2.2-1.2 4-2.8 4-1.5 0-2.8-1.8-2.8-4s1.2-4 2.8-4c1.6 0 2.8 1.8 2.8 4zM421.1 373.2c0 2.2-1.2 4-2.8 4-1.5 0-2.8-1.8-2.8-4s1.2-4 2.8-4c1.6 0 2.8 1.8 2.8 4zM421.1 403.4c0 2.2-1.2 4-2.8 4-1.5 0-2.8-1.8-2.8-4s1.2-4 2.8-4c1.6 0 2.8 1.8 2.8 4zM404.4 358.9c0 2.2-1.2 4-2.8 4s-2.8-1.8-2.8-4 1.2-4 2.8-4 2.8 1.8 2.8 4zM404.4 389.1c0 2.2-1.2 4-2.8 4s-2.8-1.8-2.8-4 1.2-4 2.8-4 2.8 1.8 2.8 4zM387.8 343c0 2.2-1.2 4-2.8 4-1.5 0-2.8-1.8-2.8-4s1.2-4 2.8-4c1.5 0 2.8 1.8 2.8 4zM387.8 373.2c0 2.2-1.2 4-2.8 4-1.5 0-2.8-1.8-2.8-4s1.2-4 2.8-4c1.5 0 2.8 1.8 2.8 4z"/><path class="st8" d="M448.9 343c0 2.2 1.2 4 2.8 4s2.8-1.8 2.8-4-1.2-4-2.8-4-2.8 1.8-2.8 4zM448.9 373.2c0 2.2 1.2 4 2.8 4s2.8-1.8 2.8-4-1.2-4-2.8-4-2.8 1.8-2.8 4zM448.9 403.4c0 2.2 1.2 4 2.8 4s2.8-1.8 2.8-4-1.2-4-2.8-4-2.8 1.8-2.8 4zM465.5 358.9c0 2.2 1.2 4 2.8 4s2.8-1.8 2.8-4-1.2-4-2.8-4-2.8 1.8-2.8 4zM465.5 389.1c0 2.2 1.2 4 2.8 4s2.8-1.8 2.8-4-1.2-4-2.8-4-2.8 1.8-2.8 4zM482.1 343c0 2.2 1.2 4 2.8 4 1.5 0 2.8-1.8 2.8-4s-1.2-4-2.8-4c-1.5 0-2.8 1.8-2.8 4zM482.1 373.2c0 2.2 1.2 4 2.8 4 1.5 0 2.8-1.8 2.8-4s-1.2-4-2.8-4c-1.5 0-2.8 1.8-2.8 4zM435 354.9v8c1.5 0 2.8-1.8 2.8-4-.1-2.2-1.3-4-2.8-4zM435 385.1v8c1.5 0 2.8-1.8 2.8-4-.1-2.2-1.3-4-2.8-4zM435 415.3v8c1.5 0 2.8-1.8 2.8-4-.1-2.2-1.3-4-2.8-4z"/><g><path class="st2" d="M449.5 280.4c0 15.5-14.5 28.1-14.5 28.1s-14.5-12.6-14.5-28.1c0-15.5 14.5-28.1 14.5-28.1s14.5 12.6 14.5 28.1zM413.6 287.2c7.7 7.7 6.8 21.3 6.8 21.3s-13.5 1-21.3-6.8-6.8-21.3-6.8-21.3 13.6-.9 21.3 6.8zM470.8 301.7c-7.7 7.7-21.3 6.8-21.3 6.8s-1-13.5 6.8-21.3c7.7-7.7 21.3-6.8 21.3-6.8s1 13.6-6.8 21.3z"/><path class="st3" d="M449.5 280.4c0 15.5-14.5 28.1-14.5 28.1v-56.2s14.5 12.6 14.5 28.1zM420.4 308.5s-13.5 1-21.3-6.8-6.8-21.3-6.8-21.3l28.1 28.1zM470.8 301.7c-7.7 7.7-21.3 6.8-21.3 6.8l28-28c.1 0 1.1 13.5-6.7 21.2z"/></g></g><g><path class="st5" d="M681 346.7c0-7.5-6.1-13.6-13.5-13.6h-.4c1.4-2.1 2.2-4.7 2.2-7.5 0-7.5-6.1-13.5-13.5-13.5-4 0-7.6 1.8-10.1 4.5-.1-7.4-6.1-13.4-13.5-13.4-7.5 0-13.5 6.1-13.5 13.5 0 .4 0 .8.1 1.2-2.5-2.7-6-4.4-10-4.4s-7.5 1.7-10 4.4c0-.4.1-.8.1-1.2 0-7.5-6.1-13.5-13.5-13.5s-13.4 6-13.5 13.4c-2.5-2.8-6.1-4.5-10.1-4.5-7.5 0-13.6 6.1-13.6 13.5 0 2.8.8 5.3 2.2 7.5h-.4c-7.5 0-13.6 6.1-13.6 13.6 0 7.1 5.4 12.9 12.4 13.5-2.6 2.5-4.3 6-4.3 9.9 0 7.5 6.1 13.6 13.5 13.6 1.4 0 2.8-.2 4.1-.6-.5 1.4-.8 2.9-.8 4.4 0 7.5 6.1 13.5 13.6 13.5 1.3 0 2.5-.2 3.6-.5-.2.8-.2 1.6-.2 2.5 0 7.5 6.1 13.5 13.5 13.5 1.2 0 2.3-.2 3.4-.4v.6c0 7.5 6.1 13.5 13.6 13.5s13.5-6.1 13.5-13.5v-.6c1.1.3 2.2.5 3.4.5 7.5 0 13.5-6.1 13.5-13.6 0-.9-.1-1.7-.2-2.5 1.2.3 2.4.5 3.6.5 7.5 0 13.5-6.1 13.5-13.6 0-1.5-.3-3-.8-4.4 1.3.4 2.7.6 4.1.6 7.5 0 13.5-6.1 13.5-13.5 0-3.9-1.7-7.4-4.3-9.9 7-.6 12.4-6.4 12.4-13.5z"/><path class="st6" d="M681 346.7c0-7.5-6.1-13.6-13.5-13.6h-.4c1.4-2.1 2.2-4.7 2.2-7.5 0-7.5-6.1-13.5-13.5-13.5-4 0-7.6 1.8-10.1 4.5-.1-7.4-6.1-13.4-13.5-13.4-7.5 0-13.5 6.1-13.5 13.5v1.1c2.2 2.4 3.6 5.6 3.6 9.2 0 4.6-2.3 8.7-5.9 11.2 3.6 2.4 6 6.6 6 11.3 0 4.7-2.3 8.8-5.9 11.2 3.6 2.4 5.9 6.5 5.9 11.2s-2.3 8.8-5.9 11.2c3.6 2.4 5.9 6.5 5.9 11.2 0 4.7-2.4 8.8-6 11.3 3.4 2.3 5.6 6.1 5.8 10.5 1.1.3 2.2.5 3.4.5 7.5 0 13.5-6.1 13.5-13.6 0-.9-.1-1.7-.2-2.5 1.2.3 2.4.5 3.6.5 7.5 0 13.5-6.1 13.5-13.6 0-1.5-.3-3-.8-4.4 1.3.4 2.7.6 4.1.6 7.5 0 13.5-6.1 13.5-13.5 0-3.9-1.7-7.4-4.3-9.9 7.1-.6 12.5-6.4 12.5-13.5zM622.2 416.8c0-.1 0-.1 0 0v-.1.1z"/><circle class="st6" cx="602.6" cy="335.4" r="6.7"/><circle class="st6" cx="562.7" cy="335.4" r="6.7"/><circle class="st6" cx="582.6" cy="350.6" r="6.7"/><circle class="st6" cx="602.6" cy="365.9" r="6.7"/><circle class="st6" cx="602.6" cy="396.5" r="6.7"/><circle class="st6" cx="562.7" cy="365.9" r="6.7"/><circle class="st6" cx="582.6" cy="381.2" r="6.7"/><circle class="st5" cx="654.9" cy="335.4" r="6.7"/><circle class="st5" cx="634.9" cy="350.6" r="6.7"/><circle class="st5" cx="654.9" cy="365.9" r="6.7"/><circle class="st5" cx="635" cy="381.2" r="6.7"/><g><path class="st2" d="M622.8 268.6c0 15.1-14.2 27.4-14.2 27.4s-14.2-12.3-14.2-27.4c0-15.1 14.2-27.4 14.2-27.4s14.2 12.2 14.2 27.4zM587.8 275.2c7.6 7.6 6.6 20.8 6.6 20.8s-13.2.9-20.8-6.6c-7.6-7.6-6.6-20.8-6.6-20.8s13.2-.9 20.8 6.6zM643.6 289.4c-7.6 7.6-20.8 6.6-20.8 6.6s-1-13.2 6.6-20.8c7.6-7.6 20.8-6.6 20.8-6.6s1 13.2-6.6 20.8z"/><path class="st3" d="M622.8 268.6c0 15.1-14.2 27.4-14.2 27.4v-54.9c0 .1 14.2 12.3 14.2 27.5zM594.4 296s-13.2 1-20.8-6.6c-7.6-7.6-6.6-20.8-6.6-20.8l27.4 27.4zM643.6 289.4c-7.6 7.6-20.8 6.6-20.8 6.6l27.4-27.4s1 13.2-6.6 20.8z"/></g></g><g><path class="st9" d="M426.8 344.5c0-7.5-6.1-13.5-13.5-13.5h-.4c1.4-2.1 2.2-4.7 2.2-7.5 0-7.5-6.1-13.6-13.5-13.6-4 0-7.6 1.8-10.1 4.5-.1-7.4-6.1-13.4-13.5-13.4-7.5 0-13.5 6.1-13.5 13.6 0 .4 0 .8.1 1.2-2.5-2.7-6-4.4-10-4.4s-7.5 1.7-10 4.4c0-.4.1-.8.1-1.2 0-7.5-6.1-13.6-13.6-13.6-7.4 0-13.4 6-13.5 13.4-2.5-2.8-6.1-4.5-10.1-4.5-7.5 0-13.6 6.1-13.6 13.6 0 2.8.8 5.3 2.2 7.5h-.4c-7.5 0-13.6 6.1-13.6 13.5 0 7.1 5.4 12.9 12.4 13.5-2.6 2.5-4.3 6-4.3 9.9 0 7.5 6.1 13.5 13.6 13.5 1.4 0 2.8-.2 4.1-.6-.5 1.4-.8 2.9-.8 4.4 0 7.5 6.1 13.6 13.5 13.6 1.3 0 2.5-.2 3.6-.5-.1.8-.2 1.6-.2 2.5 0 7.5 6.1 13.6 13.5 13.6 1.2 0 2.3-.2 3.4-.5v.6c0 7.5 6.1 13.5 13.6 13.5s13.5-6.1 13.5-13.5v-.6c1.1.3 2.2.5 3.4.5 7.5 0 13.5-6.1 13.5-13.6 0-.9-.1-1.7-.2-2.5 1.1.3 2.4.5 3.6.5 7.5 0 13.5-6.1 13.5-13.6 0-1.5-.3-3-.8-4.4 1.3.4 2.7.6 4.1.6 7.5 0 13.5-6.1 13.5-13.5 0-3.9-1.7-7.4-4.3-9.9 7-.6 12.5-6.4 12.5-13.5z"/><path class="st10" d="M426.8 344.5c0-7.5-6.1-13.5-13.5-13.5h-.4c1.4-2.1 2.2-4.7 2.2-7.5 0-7.5-6.1-13.6-13.5-13.6-4 0-7.6 1.8-10.1 4.5-.1-7.4-6.1-13.4-13.5-13.4-7.5 0-13.5 6.1-13.5 13.6v1.1c2.2 2.4 3.6 5.6 3.6 9.2 0 4.6-2.3 8.7-5.9 11.2 3.6 2.4 6 6.6 6 11.3 0 4.7-2.4 8.8-5.9 11.2 3.6 2.4 5.9 6.5 5.9 11.2s-2.4 8.8-5.9 11.2c3.6 2.4 5.9 6.5 5.9 11.2 0 4.7-2.4 8.8-6 11.3 3.4 2.3 5.6 6.1 5.9 10.5 1.1.3 2.2.5 3.4.5 7.5 0 13.5-6.1 13.5-13.6 0-.9-.1-1.7-.2-2.5 1.1.3 2.4.5 3.6.5 7.5 0 13.5-6.1 13.5-13.6 0-1.5-.3-3-.8-4.4 1.3.4 2.7.6 4.1.6 7.5 0 13.5-6.1 13.5-13.5 0-3.9-1.7-7.4-4.3-9.9 6.9-.7 12.4-6.5 12.4-13.6z"/><path class="st6" d="M367.9 414.5v-.1.1z"/><circle class="st10" cx="348.3" cy="333.2" r="6.7"/><circle class="st10" cx="308.5" cy="333.2" r="6.7"/><circle class="st10" cx="328.4" cy="348.4" r="6.7"/><circle class="st10" cx="348.3" cy="363.7" r="6.7"/><circle class="st10" cx="348.3" cy="394.3" r="6.7"/><circle class="st10" cx="308.5" cy="363.7" r="6.7"/><circle class="st10" cx="328.4" cy="379" r="6.7"/><circle class="st9" cx="400.7" cy="333.2" r="6.7"/><circle class="st9" cx="380.7" cy="348.4" r="6.7"/><circle class="st9" cx="400.7" cy="363.7" r="6.7"/><circle class="st9" cx="380.7" cy="379" r="6.7"/><g><path class="st2" d="M368.6 266.4c0 15.1-14.2 27.4-14.2 27.4s-14.2-12.3-14.2-27.4 14.2-27.4 14.2-27.4 14.2 12.2 14.2 27.4zM333.5 273c7.6 7.6 6.6 20.8 6.6 20.8s-13.2 1-20.8-6.6c-7.6-7.6-6.6-20.8-6.6-20.8s13.3-.9 20.8 6.6zM389.4 287.2c-7.6 7.6-20.8 6.6-20.8 6.6s-1-13.2 6.6-20.8c7.6-7.6 20.8-6.6 20.8-6.6s.9 13.2-6.6 20.8z"/><path class="st3" d="M368.6 266.4c0 15.1-14.2 27.4-14.2 27.4v-54.9s14.2 12.3 14.2 27.5zM340.2 293.8s-13.2 1-20.8-6.6c-7.6-7.6-6.6-20.8-6.6-20.8l27.4 27.4zM389.4 287.2c-7.6 7.6-20.8 6.6-20.8 6.6l27.4-27.4s.9 13.2-6.6 20.8z"/></g></g></svg>