<svg version="1.1" id="Layer_1" xmlns="http://www.w3.org/2000/svg" x="0" y="0" viewBox="0 0 787 456" xml:space="preserve">
  <style>
    .st0{fill:#385723}.st2{fill:#92b500}.st3{fill:#79a500}.st5{fill:#d31d21}.st6{fill:#bc0029}.st7{fill:#ffc41f}.st8{fill:#f49c00}.st9{fill:#62497a}.st10{fill:#4b3a68}
  </style>
  <path class="st0" d="M139.34 380.24c-2.18 1.04-4.56 1.89-7.16 2.56-2.6.66-5.46.99-8.58.99-2.55-5.01-4.92-9.69-7.09-14.04l-8.94-17.88c-1.04-1.89-2.08-3.5-3.12-4.82-1.04-1.32-2.6-1.99-4.68-1.99-5.39 0-10.41-1.09-15.04-3.26v-18.44c1.7 2.93 3.85 5.27 6.46 7.02 2.6 1.75 5.46 2.62 8.58 2.62 2.55 0 4.96-.47 7.24-1.42 2.27-.94 4.25-2.31 5.96-4.12 1.7-1.79 3.05-4.02 4.04-6.67 1-2.65 1.49-5.62 1.49-8.94 0-3.31-.5-6.29-1.49-8.93-.99-2.65-2.34-4.9-4.04-6.74s-3.69-3.26-5.96-4.26c-2.27-.99-4.68-1.49-7.24-1.49-2.56 0-4.99.64-7.31 1.91-2.32 1.28-4.33 3-6.03 5.18-1.7 2.18-3.05 4.71-4.04 7.59-.99 2.88-1.49 5.98-1.49 9.29v64.97a40.031 40.031 0 01-7.87 3.19c-2.79.81-5.94 1.21-9.43 1.21V314.7c0-4.92.94-9.58 2.84-13.98 1.89-4.4 4.47-8.23 7.73-11.49 3.26-3.26 7.09-5.84 11.49-7.73 4.4-1.89 9.1-2.84 14.12-2.84 4.92 0 9.58.81 13.97 2.41 4.4 1.61 8.23 3.86 11.49 6.74 3.26 2.88 5.84 6.38 7.73 10.5 1.89 4.11 2.84 8.63 2.84 13.54 0 6.43-1.51 11.8-4.54 16.1-3.03 4.3-7.09 8.01-12.2 11.14l20.27 41.15zM179.91 313.85c4.06 0 7.95.73 11.63 2.2 3.69 1.47 6.88 3.43 9.58 5.89 2.7 2.46 4.83 5.3 6.39 8.51 1.56 3.21 2.25 6.57 2.06 10.07-.19 4.16-1.56 7.68-4.12 10.57-2.55 2.89-5.84 5.11-9.86 6.67-4.02 1.56-8.61 2.51-13.76 2.84-5.16.33-10.43-.02-15.82-1.06-1.32-3.4-1.99-6.9-1.99-10.5v-1.7c7.09 1.42 12.65 1.84 16.67 1.28 4.02-.56 7.02-1.56 9.01-2.98 1.98-1.42 3.21-2.91 3.68-4.47.47-1.56.71-2.62.71-3.19 0-.47-.12-1.34-.35-2.62-.24-1.28-.85-2.57-1.84-3.9-1-1.32-2.46-2.48-4.4-3.47-1.94-1-4.66-1.49-8.16-1.49-2.74 0-5.22.59-7.45 1.77-2.22 1.19-4.14 2.84-5.74 4.97-1.61 2.12-2.86 4.68-3.76 7.66-.9 2.98-1.35 6.22-1.35 9.72 0 3.31.5 6.38 1.49 9.22.99 2.84 2.34 5.32 4.04 7.45 1.7 2.13 3.69 3.81 5.96 5.04s4.73 1.84 7.38 1.84c2.27.19 4.4-.03 6.38-.64 1.99-.61 3.74-1.39 5.25-2.34a30.02 30.02 0 004.83-3.69l8.37 8.51c-3.21 3.12-6.95 5.59-11.21 7.38-4.25 1.8-8.8 2.7-13.62 2.7-5.01 0-9.72-.95-14.11-2.84-4.4-1.89-8.23-4.47-11.49-7.73-3.26-3.26-5.84-7.07-7.73-11.42-1.89-4.35-2.84-9.03-2.84-14.04s.94-9.71 2.84-14.11c1.89-4.4 4.47-8.23 7.73-11.49 3.27-3.26 7.09-5.84 11.49-7.73 4.39-1.94 9.1-2.88 14.11-2.88zM289 350.02c0 5.02-.95 9.7-2.84 14.04-1.9 4.35-4.47 8.16-7.73 11.42-3.27 3.26-7.09 5.84-11.49 7.73-4.4 1.89-9.1 2.84-14.11 2.84-5.02 0-9.7-.95-14.04-2.84-4.35-1.89-8.16-4.47-11.42-7.73s-5.84-7.07-7.73-11.42c-1.89-4.35-2.84-9.03-2.84-14.04s.94-9.69 2.84-14.04c1.89-4.35 4.47-8.15 7.73-11.42 3.26-3.27 7.07-5.84 11.42-7.73 4.35-1.89 9.03-2.84 14.04-2.84 5.39 0 10.4 1.09 15.04 3.26v18.16c-1.7-2.93-3.85-5.27-6.46-7.02-2.6-1.75-5.46-2.62-8.58-2.62-2.56 0-4.96.64-7.24 1.92-2.27 1.28-4.26 3-5.96 5.18-1.7 2.18-3.05 4.73-4.04 7.66-.99 2.93-1.49 6.1-1.49 9.5 0 3.31.5 6.46 1.49 9.43 1 2.98 2.34 5.56 4.04 7.74 1.7 2.18 3.69 3.9 5.96 5.18 2.27 1.28 4.68 1.91 7.24 1.91 2.55 0 4.96-.64 7.24-1.91 2.27-1.28 4.25-3 5.96-5.18 1.7-2.18 3.07-4.71 4.12-7.59 1.04-2.88 1.56-5.98 1.56-9.29v-65.25a36.79 36.79 0 017.87-3.12c2.79-.76 5.93-1.14 9.43-1.14v69.21z"/>
  <g>
    <path class="st0" d="M407.57 380.24c-2.18 1.04-4.56 1.89-7.16 2.56-2.6.66-5.46.99-8.58.99-2.55-5.01-4.92-9.69-7.09-14.04l-8.94-17.88c-1.04-1.89-2.08-3.5-3.12-4.82-1.04-1.32-2.6-1.99-4.68-1.99-5.39 0-10.41-1.09-15.04-3.26v-18.44c1.7 2.93 3.85 5.27 6.46 7.02 2.6 1.75 5.46 2.62 8.58 2.62 2.55 0 4.96-.47 7.24-1.42 2.27-.94 4.25-2.31 5.96-4.12 1.7-1.79 3.05-4.02 4.04-6.67 1-2.65 1.49-5.62 1.49-8.94 0-3.31-.5-6.29-1.49-8.93-.99-2.65-2.34-4.9-4.04-6.74-1.7-1.84-3.69-3.26-5.96-4.26-2.27-.99-4.68-1.49-7.24-1.49-2.56 0-4.99.64-7.31 1.91-2.32 1.28-4.33 3-6.03 5.18-1.7 2.18-3.05 4.71-4.04 7.59-.99 2.88-1.49 5.98-1.49 9.29v64.97a40.031 40.031 0 01-7.87 3.19c-2.79.81-5.94 1.21-9.43 1.21V314.7c0-4.92.94-9.58 2.84-13.98 1.89-4.4 4.47-8.23 7.73-11.49 3.26-3.26 7.09-5.84 11.49-7.73 4.4-1.89 9.1-2.84 14.12-2.84 4.92 0 9.58.81 13.97 2.41 4.4 1.61 8.23 3.86 11.49 6.74 3.26 2.88 5.84 6.38 7.73 10.5 1.89 4.11 2.84 8.63 2.84 13.54 0 6.43-1.51 11.8-4.54 16.1-3.03 4.3-7.09 8.01-12.2 11.14l20.27 41.15zM471.76 317.04c2.79-.8 5.89-1.21 9.29-1.21v33.91c0 5.01-.85 9.69-2.55 14.04-1.7 4.35-4.07 8.15-7.09 11.42-3.03 3.27-6.65 5.84-10.86 7.73-4.21 1.89-8.77 2.84-13.69 2.84-5.02 0-9.63-.95-13.83-2.84-4.2-1.89-7.82-4.46-10.85-7.73-3.03-3.26-5.39-7.07-7.09-11.42-1.7-4.35-2.55-9.03-2.55-14.04v-29.51c2.46-1.33 5.08-2.39 7.87-3.19 2.79-.8 5.93-1.21 9.43-1.21v33.91c0 3.31.4 6.45 1.2 9.43.81 2.98 1.94 5.55 3.4 7.73 1.47 2.18 3.24 3.9 5.32 5.18 2.08 1.28 4.44 1.92 7.09 1.92 2.55 0 4.89-.64 7.02-1.92 2.13-1.28 3.93-3 5.39-5.18 1.47-2.18 2.6-4.75 3.4-7.73.8-2.98 1.21-6.12 1.21-9.43v-29.51c2.47-1.33 5.09-2.39 7.89-3.19zM526.02 313.99c4.92 0 9.58.95 13.97 2.84 4.4 1.89 8.23 4.46 11.49 7.73 3.26 3.26 5.84 7.07 7.73 11.42 1.89 4.35 2.84 9.03 2.84 14.04 0 5.02-.95 9.7-2.84 14.04-1.9 4.35-4.47 8.16-7.73 11.42-3.26 3.26-7.09 5.84-11.49 7.73-4.4 1.89-9.05 2.84-13.97 2.84-5.02 0-9.7-.95-14.04-2.84-4.35-1.89-8.16-4.47-11.42-7.73s-5.84-7.07-7.73-11.42c-1.89-4.35-2.84-9.03-2.84-14.04v-64.97a36.79 36.79 0 017.87-3.12c2.79-.76 5.89-1.14 9.29-1.14V350.31c0 3.31.5 6.41 1.49 9.29 1 2.89 2.34 5.42 4.04 7.59 1.71 2.18 3.71 3.9 6.03 5.18 2.31 1.28 4.75 1.91 7.3 1.91s4.99-.64 7.3-1.91c2.32-1.28 4.33-3 6.03-5.18 1.7-2.18 3.05-4.75 4.04-7.74 1-2.98 1.49-6.12 1.49-9.43 0-3.4-.5-6.57-1.49-9.5-.99-2.93-2.34-5.49-4.04-7.66-1.7-2.17-3.71-3.9-6.03-5.18-2.32-1.28-4.75-1.92-7.3-1.92-3.03 0-5.84.88-8.44 2.62-2.6 1.75-4.75 4.09-6.46 7.02v-18.16c4.64-2.16 9.61-3.25 14.91-3.25zM581.63 306.89c-2.75 0-5.03-.94-6.88-2.84-1.84-1.89-2.77-4.21-2.77-6.95s.92-5.04 2.77-6.88 4.13-2.77 6.88-2.77c2.74 0 5.06.92 6.95 2.77s2.84 4.14 2.84 6.88c0 2.75-.95 5.06-2.84 6.95-1.89 1.9-4.21 2.84-6.95 2.84zm-8.66 14.33c2.46-1.32 5.09-2.39 7.87-3.19 2.79-.8 5.93-1.2 9.43-1.2v62.56c-4.07 2.18-8.7 3.54-13.9 4.11h-3.4v-62.28zM636.81 313.85c4.06 0 7.95.73 11.63 2.2 3.69 1.47 6.88 3.43 9.58 5.89 2.7 2.46 4.83 5.3 6.39 8.51 1.56 3.21 2.25 6.57 2.06 10.07-.19 4.16-1.56 7.68-4.12 10.57-2.55 2.89-5.84 5.11-9.86 6.67-4.02 1.56-8.61 2.51-13.76 2.84-5.16.33-10.43-.02-15.82-1.06-1.32-3.4-1.99-6.9-1.99-10.5v-1.7c7.09 1.42 12.65 1.84 16.67 1.28 4.02-.56 7.02-1.56 9.01-2.98 1.98-1.42 3.21-2.91 3.68-4.47s.71-2.62.71-3.19c0-.47-.12-1.34-.35-2.62-.24-1.28-.85-2.57-1.84-3.9-1-1.32-2.46-2.48-4.4-3.47-1.94-1-4.66-1.49-8.16-1.49-2.74 0-5.22.59-7.45 1.77-2.22 1.19-4.14 2.84-5.74 4.97-1.61 2.12-2.86 4.68-3.76 7.66-.9 2.98-1.35 6.22-1.35 9.72 0 3.31.5 6.38 1.49 9.22.99 2.84 2.34 5.32 4.04 7.45s3.69 3.81 5.96 5.04 4.73 1.84 7.38 1.84c2.27.19 4.4-.03 6.38-.64 1.99-.61 3.74-1.39 5.25-2.34a30.02 30.02 0 004.83-3.69l8.37 8.51c-3.21 3.12-6.95 5.59-11.21 7.38-4.25 1.8-8.8 2.7-13.62 2.7-5.01 0-9.72-.95-14.11-2.84-4.4-1.89-8.23-4.47-11.49-7.73-3.26-3.26-5.84-7.07-7.73-11.42-1.89-4.35-2.84-9.03-2.84-14.04s.94-9.71 2.84-14.11c1.89-4.4 4.47-8.23 7.73-11.49 3.27-3.26 7.09-5.84 11.49-7.73 4.39-1.94 9.1-2.88 14.11-2.88zM706.47 344.49c5.67 2.18 10 5.06 12.98 8.65 2.98 3.59 4.28 7.8 3.9 12.62-.19 3.4-1.13 6.41-2.84 9.01-1.7 2.6-3.86 4.75-6.46 6.45-2.6 1.7-5.58 2.93-8.94 3.69s-6.79 1.04-10.29.85c-3.88-.28-7.71-1.35-11.49-3.19-3.78-1.84-7.05-4.09-9.79-6.74.85-1.7 1.82-3.34 2.9-4.9s2.43-3.14 4.05-4.75c2.65 3.21 5.27 5.37 7.87 6.46 2.6 1.09 4.99 1.73 7.16 1.91 4.35.28 7.56-.4 9.64-2.06 2.08-1.65 3.21-3.76 3.4-6.31.09-1.61-.21-2.98-.92-4.12-.71-1.13-1.75-2.12-3.12-2.98-1.37-.85-3.1-1.65-5.18-2.41-2.08-.76-4.45-1.61-7.09-2.56-3.59-1.42-6.55-2.96-8.87-4.61-2.32-1.65-4.14-3.38-5.46-5.18-1.33-1.8-2.22-3.62-2.69-5.46-.47-1.84-.62-3.66-.43-5.46.19-2.27.87-4.52 2.06-6.74 1.18-2.22 2.81-4.18 4.9-5.89 2.08-1.7 4.61-2.98 7.59-3.83 2.98-.85 6.36-1.09 10.14-.71 4.16.47 7.96 1.56 11.42 3.26 3.45 1.7 6.55 3.88 9.29 6.52-.85 1.7-1.82 3.36-2.91 4.96-1.09 1.61-2.43 3.17-4.04 4.68-2.75-3.21-5.42-5.37-8.02-6.46-2.6-1.09-4.99-1.68-7.17-1.78-1.23-.09-2.41.05-3.55.43-1.13.38-2.1.92-2.9 1.63-.81.71-1.4 1.56-1.78 2.55-.38 1-.38 2.06 0 3.19.38 1.04.94 1.91 1.7 2.62.76.71 1.8 1.4 3.12 2.06 1.32.66 2.93 1.35 4.83 2.06 1.92.76 4.24 1.59 6.99 2.54z"/>
  </g>
  <g>
    <path d="M459.64 144.9c-6.36 0-12.35 1.59-17.59 4.4-9.06 4.86-20.08 4.86-29.14 0a37.109 37.109 0 00-17.59-4.4c-20.61 0-37.32 16.71-37.32 37.32 0 8.21 3.18 15.46 7.15 21.97 5.82 9.53 14.56 20.19 23.68 30.19 20.72 22.75 56.6 22.74 77.32-.01 9.11-10 17.85-20.65 23.66-30.18 3.97-6.51 7.15-13.76 7.15-21.97-.01-20.61-16.71-37.32-37.32-37.32z" fill="#4f4f84"/>
    <path class="st2" d="M443.15 105.85c0 16.74-15.68 30.3-15.68 30.3s-15.68-13.57-15.68-30.3c0-16.74 15.68-30.3 15.68-30.3s15.68 13.57 15.68 30.3zM404.46 113.19c8.34 8.34 7.29 22.93 7.29 22.93s-14.58 1.05-22.93-7.29c-8.34-8.34-7.29-22.93-7.29-22.93s14.58-1.06 22.93 7.29zM466.12 128.82c-8.34 8.34-22.93 7.29-22.93 7.29s-1.05-14.58 7.29-22.93c8.34-8.34 22.93-7.29 22.93-7.29s1.05 14.59-7.29 22.93z"/>
    <path class="st3" d="M443.15 105.85c0 16.74-15.68 30.3-15.68 30.3v-60.6s15.68 13.57 15.68 30.3zM411.75 136.11s-14.58 1.05-22.93-7.29c-8.34-8.34-7.29-22.93-7.29-22.93l30.22 30.22zM466.12 128.82c-8.34 8.34-22.93 7.29-22.93 7.29l30.22-30.22s1.05 14.59-7.29 22.93z"/>
    <g>
      <path d="M459.64 144.9c-6.36 0-12.35 1.59-17.59 4.4a30.822 30.822 0 01-14.57 3.64l-.01 98.49c14.15 0 28.31-5.69 38.67-17.07 9.11-10 17.85-20.65 23.66-30.18 3.97-6.51 7.15-13.76 7.15-21.97 0-20.6-16.7-37.31-37.31-37.31z" fill="#424272"/>
    </g>
    <g>
      <path class="st5" d="M380.72 146.5c-14.38 0-26.94 7.76-33.75 19.31-6.81-11.55-19.37-19.31-33.75-19.31-21.62 0-39.15 17.53-39.15 39.15 0 8.62 3.33 16.22 7.5 23.05 14.7 24.09 47.24 55.03 60.05 66.78a7.902 7.902 0 0010.68 0c12.82-11.75 45.36-42.69 60.06-66.79 4.17-6.83 7.5-14.43 7.5-23.05.01-21.61-17.52-39.14-39.14-39.14z"/>
      <path class="st6" d="M380.72 146.5c-14.38 0-26.94 7.76-33.75 19.31v111.76c1.91 0 3.83-.69 5.34-2.08 12.82-11.75 45.36-42.69 60.06-66.79 4.17-6.83 7.5-14.43 7.5-23.05 0-21.62-17.53-39.15-39.15-39.15z"/>
      <path class="st7" d="M349.73 189.88c0 2.21-1.24 4-2.76 4-1.53 0-2.76-1.79-2.76-4s1.24-4 2.76-4c1.52 0 2.76 1.79 2.76 4zM349.73 220.1c0 2.21-1.24 4-2.76 4-1.53 0-2.76-1.79-2.76-4s1.24-4 2.76-4c1.52 0 2.76 1.79 2.76 4zM349.72 250.32c0 2.21-1.24 4-2.76 4s-2.76-1.79-2.76-4 1.24-4 2.76-4 2.76 1.79 2.76 4zM333.08 173.98c0 2.21-1.24 4-2.76 4-1.53 0-2.76-1.79-2.76-4s1.24-4 2.76-4c1.53 0 2.76 1.79 2.76 4zM333.08 204.2c0 2.21-1.24 4-2.76 4-1.53 0-2.76-1.79-2.76-4s1.24-4 2.76-4c1.53 0 2.76 1.79 2.76 4zM333.08 234.42c0 2.21-1.24 4-2.76 4-1.53 0-2.76-1.79-2.76-4s1.24-4 2.76-4c1.53 0 2.76 1.79 2.76 4zM316.44 189.88c0 2.21-1.24 4-2.76 4s-2.76-1.79-2.76-4 1.24-4 2.76-4 2.76 1.79 2.76 4zM316.44 220.1c0 2.21-1.24 4-2.76 4s-2.76-1.79-2.76-4 1.24-4 2.76-4 2.76 1.79 2.76 4zM299.79 173.98c0 2.21-1.24 4-2.76 4-1.53 0-2.76-1.79-2.76-4s1.24-4 2.76-4c1.52 0 2.76 1.79 2.76 4zM299.79 204.2c0 2.21-1.24 4-2.76 4-1.53 0-2.76-1.79-2.76-4s1.24-4 2.76-4c1.52 0 2.76 1.79 2.76 4z"/>
      <path class="st8" d="M360.85 173.98c0 2.21 1.24 4 2.76 4s2.76-1.79 2.76-4-1.24-4-2.76-4-2.76 1.79-2.76 4zM360.85 204.2c0 2.21 1.24 4 2.76 4s2.76-1.79 2.76-4-1.24-4-2.76-4-2.76 1.79-2.76 4zM360.85 234.42c0 2.21 1.24 4 2.76 4s2.76-1.79 2.76-4-1.24-4-2.76-4-2.76 1.79-2.76 4zM377.5 189.88c0 2.21 1.24 4 2.76 4s2.76-1.79 2.76-4-1.24-4-2.76-4-2.76 1.79-2.76 4zM377.5 220.1c0 2.21 1.24 4 2.76 4s2.76-1.79 2.76-4-1.24-4-2.76-4-2.76 1.79-2.76 4zM394.15 173.98c0 2.21 1.24 4 2.76 4 1.53 0 2.76-1.79 2.76-4s-1.24-4-2.76-4c-1.53 0-2.76 1.79-2.76 4zM394.15 204.2c0 2.21 1.24 4 2.76 4 1.53 0 2.76-1.79 2.76-4s-1.24-4-2.76-4c-1.53 0-2.76 1.79-2.76 4zM346.97 185.88v7.99c1.53 0 2.76-1.79 2.76-4 0-2.2-1.24-3.99-2.76-3.99zM346.97 216.1v7.99c1.53 0 2.76-1.79 2.76-4 0-2.2-1.24-3.99-2.76-3.99zM346.97 246.32v7.99c1.52 0 2.76-1.79 2.76-4-.01-2.2-1.24-3.99-2.76-3.99z"/>
      <g>
        <path class="st2" d="M361.51 111.41c0 15.52-14.54 28.11-14.54 28.11s-14.54-12.58-14.54-28.11c0-15.52 14.54-28.11 14.54-28.11s14.54 12.58 14.54 28.11zM325.62 118.21c7.74 7.74 6.76 21.27 6.76 21.27s-13.53.98-21.27-6.76-6.76-21.27-6.76-21.27 13.53-.98 21.27 6.76zM382.82 132.71c-7.74 7.74-21.27 6.76-21.27 6.76s-.98-13.53 6.76-21.27 21.27-6.76 21.27-6.76.98 13.53-6.76 21.27z"/>
        <path class="st3" d="M361.51 111.41c0 15.52-14.54 28.11-14.54 28.11V83.3s14.54 12.58 14.54 28.11zM332.39 139.48s-13.53.98-21.27-6.76-6.76-21.27-6.76-21.27l28.03 28.03zM382.82 132.71c-7.74 7.74-21.27 6.76-21.27 6.76l28.03-28.03c0 .01.98 13.53-6.76 21.27z"/>
      </g>
    </g>
    <g>
      <path class="st5" d="M593 177.71c0-7.49-6.07-13.55-13.55-13.55-.15 0-.29.02-.44.02a13.43 13.43 0 002.24-7.46c0-7.49-6.07-13.55-13.55-13.55-4.01 0-7.61 1.76-10.09 4.53-.11-7.39-6.13-13.35-13.54-13.35-7.49 0-13.55 6.07-13.55 13.55 0 .42.03.83.06 1.24-2.48-2.69-6.02-4.39-9.96-4.39s-7.49 1.7-9.96 4.39c.04-.41.06-.82.06-1.24 0-7.49-6.07-13.55-13.55-13.55-7.42 0-13.43 5.96-13.54 13.35-2.48-2.77-6.08-4.53-10.09-4.53-7.49 0-13.55 6.07-13.55 13.55 0 2.76.83 5.32 2.24 7.46-.15 0-.29-.02-.44-.02-7.49 0-13.55 6.07-13.55 13.55 0 7.08 5.43 12.89 12.36 13.49-2.65 2.47-4.32 5.99-4.32 9.9 0 7.49 6.07 13.55 13.55 13.55 1.44 0 2.83-.23 4.13-.65-.48 1.39-.76 2.88-.76 4.43 0 7.49 6.07 13.55 13.55 13.55 1.25 0 2.46-.18 3.62-.5-.15.81-.24 1.64-.24 2.49 0 7.49 6.07 13.55 13.55 13.55 1.18 0 2.32-.17 3.41-.45-.01.21-.03.42-.03.64 0 7.49 6.07 13.55 13.55 13.55 7.49 0 13.55-6.07 13.55-13.55 0-.22-.02-.43-.03-.64 1.09.28 2.23.45 3.41.45 7.49 0 13.55-6.07 13.55-13.55 0-.85-.09-1.68-.24-2.49 1.15.32 2.36.5 3.62.5 7.49 0 13.55-6.07 13.55-13.55 0-1.55-.27-3.04-.76-4.43 1.3.42 2.69.65 4.13.65 7.49 0 13.55-6.07 13.55-13.55 0-3.91-1.67-7.43-4.32-9.9 6.94-.6 12.38-6.4 12.38-13.49z"/>
      <path class="st6" d="M593 177.71c0-7.49-6.07-13.55-13.55-13.55-.15 0-.29.02-.44.02a13.43 13.43 0 002.24-7.46c0-7.49-6.07-13.55-13.55-13.55-4.01 0-7.61 1.76-10.09 4.53-.11-7.39-6.13-13.35-13.54-13.35-7.49 0-13.55 6.07-13.55 13.55 0 .36.02.71.05 1.06 2.23 2.42 3.6 5.63 3.6 9.18 0 4.63-2.33 8.72-5.87 11.16 3.61 2.43 5.99 6.56 5.99 11.25 0 4.66-2.35 8.77-5.93 11.21 3.58 2.44 5.93 6.55 5.93 11.21 0 4.66-2.35 8.77-5.93 11.21 3.58 2.44 5.93 6.55 5.93 11.21 0 4.69-2.38 8.81-5.99 11.25 3.37 2.32 5.63 6.13 5.85 10.47 1.09.28 2.22.45 3.4.45 7.49 0 13.55-6.07 13.55-13.55 0-.85-.09-1.68-.24-2.49 1.15.32 2.36.5 3.62.5 7.49 0 13.55-6.07 13.55-13.55 0-1.55-.27-3.04-.76-4.43 1.3.42 2.69.65 4.13.65 7.49 0 13.55-6.07 13.55-13.55 0-3.91-1.67-7.43-4.32-9.9 6.93-.64 12.37-6.44 12.37-13.53zM534.16 247.75v-.02-.09.11z"/>
      <circle transform="rotate(-68.783 514.559 166.374)" class="st6" cx="514.56" cy="166.37" r="6.74"/>
      <circle transform="rotate(-67.611 474.683 166.376)" class="st6" cx="474.7" cy="166.37" r="6.74"/>
      <circle transform="rotate(-13.043 494.652 181.693)" class="st6" cx="494.63" cy="181.64" r="6.74"/>
      <circle transform="rotate(-8.959 514.479 196.906)" class="st6" cx="514.56" cy="196.91" r="6.74"/>
      <circle class="st6" cx="514.56" cy="227.46" r="6.74"/>
      <circle transform="rotate(-9.196 474.719 196.924)" class="st6" cx="474.7" cy="196.91" r="6.74"/>
      <circle class="st6" cx="494.63" cy="212.19" r="6.74"/>
      <circle transform="rotate(-67.611 566.873 166.379)" class="st5" cx="566.89" cy="166.37" r="6.74"/>
      <circle transform="rotate(-13.239 546.991 181.65)" class="st5" cx="546.96" cy="181.64" r="6.74"/>
      <circle transform="rotate(-9.196 566.915 196.925)" class="st5" cx="566.89" cy="196.91" r="6.74"/>
      <circle class="st5" cx="546.96" cy="212.19" r="6.74"/>
      <g>
        <path class="st2" d="M534.81 99.59c0 15.15-14.19 27.44-14.19 27.44s-14.19-12.28-14.19-27.44c0-15.15 14.19-27.44 14.19-27.44s14.19 12.29 14.19 27.44zM499.77 106.23c7.56 7.56 6.6 20.76 6.6 20.76s-13.2.95-20.76-6.6c-7.56-7.56-6.6-20.76-6.6-20.76s13.21-.95 20.76 6.6zM555.6 120.39c-7.56 7.56-20.76 6.6-20.76 6.6s-.95-13.2 6.6-20.76c7.56-7.56 20.76-6.6 20.76-6.6s.96 13.2-6.6 20.76z"/>
        <path class="st3" d="M534.81 99.59c0 15.15-14.19 27.44-14.19 27.44V72.15c-.01 0 14.19 12.29 14.19 27.44zM506.38 126.99s-13.2.95-20.76-6.6c-7.56-7.56-6.6-20.76-6.6-20.76l27.36 27.36zM555.6 120.39c-7.56 7.56-20.76 6.6-20.76 6.6l27.36-27.36s.96 13.2-6.6 20.76z"/>
      </g>
    </g>
    <g>
      <path class="st9" d="M338.78 175.5c0-7.49-6.07-13.55-13.55-13.55-.15 0-.29.02-.44.02a13.43 13.43 0 002.24-7.46c0-7.49-6.07-13.55-13.55-13.55-4.01 0-7.61 1.76-10.09 4.53-.11-7.39-6.13-13.35-13.54-13.35-7.49 0-13.55 6.07-13.55 13.55 0 .42.03.83.06 1.24-2.48-2.69-6.02-4.39-9.96-4.39-3.95 0-7.49 1.7-9.96 4.39.04-.41.06-.82.06-1.24 0-7.49-6.07-13.55-13.55-13.55-7.42 0-13.43 5.96-13.54 13.35-2.48-2.77-6.08-4.53-10.09-4.53-7.49 0-13.55 6.07-13.55 13.55 0 2.76.83 5.32 2.24 7.46-.15 0-.29-.02-.44-.02-7.49 0-13.55 6.07-13.55 13.55 0 7.08 5.43 12.89 12.36 13.49-2.65 2.47-4.32 5.99-4.32 9.9 0 7.49 6.07 13.55 13.55 13.55 1.44 0 2.83-.23 4.13-.65-.48 1.39-.76 2.88-.76 4.43 0 7.49 6.07 13.55 13.55 13.55 1.25 0 2.46-.18 3.62-.5-.15.81-.24 1.64-.24 2.49 0 7.49 6.07 13.55 13.55 13.55 1.18 0 2.32-.17 3.41-.45-.01.21-.03.42-.03.64 0 7.49 6.07 13.55 13.55 13.55 7.49 0 13.55-6.07 13.55-13.55 0-.22-.02-.43-.03-.64 1.09.28 2.23.45 3.41.45 7.49 0 13.55-6.07 13.55-13.55 0-.85-.09-1.68-.24-2.49 1.15.32 2.36.5 3.62.5 7.49 0 13.55-6.07 13.55-13.55 0-1.55-.27-3.04-.76-4.43 1.3.42 2.69.65 4.13.65 7.49 0 13.55-6.07 13.55-13.55 0-3.91-1.67-7.43-4.32-9.9 6.94-.6 12.38-6.4 12.38-13.49z"/>
      <path class="st10" d="M338.78 175.5c0-7.49-6.07-13.55-13.55-13.55-.15 0-.29.02-.44.02a13.43 13.43 0 002.24-7.46c0-7.49-6.07-13.55-13.55-13.55-4.01 0-7.61 1.76-10.09 4.53-.11-7.39-6.13-13.35-13.54-13.35-7.49 0-13.55 6.07-13.55 13.55 0 .36.02.71.05 1.06 2.23 2.42 3.6 5.63 3.6 9.18 0 4.63-2.33 8.72-5.87 11.16 3.61 2.43 5.99 6.56 5.99 11.25 0 4.66-2.35 8.77-5.93 11.21 3.58 2.44 5.93 6.55 5.93 11.21 0 4.66-2.35 8.77-5.93 11.21 3.58 2.44 5.93 6.55 5.93 11.21 0 4.69-2.38 8.82-5.99 11.25 3.37 2.32 5.63 6.13 5.85 10.47 1.09.28 2.22.45 3.4.45 7.49 0 13.55-6.07 13.55-13.55 0-.85-.09-1.68-.24-2.49 1.15.32 2.36.5 3.62.5 7.49 0 13.55-6.07 13.55-13.55 0-1.55-.27-3.04-.76-4.43 1.3.42 2.69.65 4.13.65 7.49 0 13.55-6.07 13.55-13.55 0-3.91-1.67-7.43-4.32-9.9 6.93-.64 12.37-6.44 12.37-13.53z"/>
      <path class="st6" d="M279.94 245.54v-.02-.09.11z"/>
      <circle class="st10" cx="260.34" cy="164.16" r="6.74"/>
      <circle class="st10" cx="220.47" cy="164.16" r="6.74"/>
      <circle class="st10" cx="240.41" cy="179.43" r="6.74"/>
      <circle class="st10" cx="260.34" cy="194.71" r="6.74"/>
      <circle transform="rotate(-8.959 260.293 225.233)" class="st10" cx="260.34" cy="225.26" r="6.74"/>
      <circle class="st10" cx="220.47" cy="194.71" r="6.74"/>
      <circle transform="rotate(-46.235 240.41 209.977)" class="st10" cx="240.41" cy="209.98" r="6.74"/>
      <circle class="st9" cx="312.67" cy="164.16" r="6.74"/>
      <circle class="st9" cx="292.73" cy="179.43" r="6.74"/>
      <circle class="st9" cx="312.67" cy="194.71" r="6.74"/>
      <circle transform="rotate(-45.001 292.733 209.985)" class="st9" cx="292.73" cy="209.98" r="6.74"/>
      <g>
        <path class="st2" d="M280.58 97.38c0 15.15-14.19 27.44-14.19 27.44s-14.19-12.28-14.19-27.44 14.19-27.44 14.19-27.44 14.19 12.29 14.19 27.44zM245.55 104.02c7.56 7.56 6.6 20.76 6.6 20.76s-13.2.95-20.76-6.6c-7.56-7.56-6.6-20.76-6.6-20.76s13.21-.95 20.76 6.6zM301.38 118.18c-7.56 7.56-20.76 6.6-20.76 6.6s-.95-13.2 6.6-20.76c7.56-7.56 20.76-6.6 20.76-6.6s.96 13.2-6.6 20.76z"/>
        <path class="st3" d="M280.58 97.38c0 15.15-14.19 27.44-14.19 27.44V69.94s14.19 12.29 14.19 27.44zM252.16 124.78s-13.2.95-20.76-6.6c-7.56-7.56-6.6-20.76-6.6-20.76l27.36 27.36zM301.38 118.18c-7.56 7.56-20.76 6.6-20.76 6.6l27.36-27.36s.96 13.2-6.6 20.76z"/>
      </g>
    </g>
  </g>
</svg>
